# xmcd CD database file
#
# Track frame offsets:
#	150
#	18795
#	41705
#	52925
#	62690
#	72942
#	81923
#	92528
#	103392
#	112643
#	122802
#	134837
#	147147
#	160952
#	173322
#	185330
#	197935
#	213765
#	225647
#	236592
#	248352
#	258855
#	270342
#	289875
#	298538
#	299290
#	300042
#	300795
#	312845
#
# Disc length: 4331 seconds
#
# Revision: 0
# Processed by: cddbd v1.4PL0 Copyright (c) Steve Scherf et al.
# Submitted via: CDex 1.40Beta9
#
DISCID=8410e91d
DTITLE=Var - Gold Disk 606
DYEAR=1900
DGENRE=Blues
TTITLE0=Eric Burdon and War-Spill the Wine
TTITLE1=Bee Gees-Tragedy
TTITLE2=Lemon Pipers-Green Tambourine
TTITLE3=James Brown-Papas Got A Brand New Bag
TTITLE4=Angels-My Boyfriends Back
TTITLE5=Gary Lewis and the Playboys-Save Your Heart For Me
TTITLE6=Human Beinz-Nobody But Me
TTITLE7=Chuck Berry-Maybelline
TTITLE8=Beach Boys-Dance, Dance, Dance
TTITLE9=Bill Haley and his Comets-Rock Around The Clock
TTITLE10=Cher-Cypsys, Tramps and Thieves
TTITLE11=Chairmen of The Board-Give Me Just A Little More Time
TTITLE12=Honeycombs-Have I The Right?
TTITLE13=Coasters-Poison Ivy
TTITLE14=Lesley Gore-Maybe I Know
TTITLE15=Isley Brothers-It's Your Thing
TTITLE16=Johnny rivers-Rockin' Pneumonia
TTITLE17=Beatles-Things We Said Today
TTITLE18=Lloyd Price-Stagger Lee
TTITLE19=Freddy Cannon-Tallahassee Lassie
TTITLE20=Elvis Presley-Hound Dog
TTITLE21=Clarence Carter-Slip Away
TTITLE22=Electric Light Orchestra-Evil Woman
TTITLE23=Jerry Lee Lewis-Great Balls Of Fire
TTITLE24=blank
TTITLE25=blank
TTITLE26=blank
TTITLE27=Angels-My Boyfriends Back
TTITLE28=Coasters-Poison Ivy mono
EXTD=ID3G: 0
EXTT0=
EXTT1=
EXTT2=
EXTT3=
EXTT4=
EXTT5=
EXTT6=
EXTT7=
EXTT8=
EXTT9=
EXTT10=
EXTT11=
EXTT12=
EXTT13=
EXTT14=
EXTT15=
EXTT16=
EXTT17=
EXTT18=
EXTT19=
EXTT20=
EXTT21=
EXTT22=
EXTT23=
EXTT24=
EXTT25=
EXTT26=
EXTT27=
EXTT28=
PLAYORDER=
